# generated from PmQm by Jehee Lee
:FULLY-SPECIFIED
:DEGREES
636
root 76.0577189 39.3511 -49.60854586 2.79753918 -49.62608237 -5.69444707
RightUpLeg 2.07461014 3.221001837 22.34032111
RightLeg -3.756911303 0 0
RightFoot -0.5916732551 56.48112198 -16.60389289
RightToes 2.32829e-010 -1.59028e-015 9.93923e-017
Spine -7.5167 2.4629 10.0566
Spine1 13.1436 3.04149 -2.25914
HEad -7.17577 -4.74753 2.14411
LeftShoulder1 9.93923e-017 0 1.22299e-017
LeftArm 9.71386 51.2335 -73.7732
LeftForeArm -17.2206 -12.4679 -4.32667
LeftHand 1.00603 7.18139 -7.52092
RightShoulder 1.98785e-016 -4.96962e-017 1.55301e-017
RightArm 23.4667 -31.7158 85.2526
RightForeArm -49.3998 24.6436 -22.8614
RightHand 1.11765 -10.0563 -5.86373
LeftUpLeg -15.76366991 -5.287537635 1.666515898
LeftLeg 36.53286013 -6.341775547 5.104726974
LeftFoot 2.431293751 23.38624924 -22.41953099
LeftToes 8.82235e-011 9.04645e-011 1.87288e-011
637
root 75.11848627 39.3275 -48.84252398 3.406905812 -54.78637794 -6.270975145
RightUpLeg 5.142388992 1.976095711 22.17066401
RightLeg -3.756911303 0 0
RightFoot -7.318500723 61.52797644 -21.99006646
RightToes 2.32829e-010 -1.59028e-015 9.93923e-017
Spine -7.50674 3.43618 11.2677
Spine1 13.3803 4.13737 -3.40054
HEad -7.70232 -4.95186 1.66868
LeftShoulder1 9.93923e-017 0 1.22299e-017
LeftArm 9.94681 53.4464 -71.1492
LeftForeArm -17.9221 -13.2168 -3.49391
LeftHand 1.0069 7.19274 -7.40753
RightShoulder 1.98785e-016 -4.96962e-017 1.55301e-017
RightArm 21.8119 -28.0745 84.0461
RightForeArm -46.3925 27.0863 -24.6167
RightHand 1.13036 -10.0345 -6.34538
LeftUpLeg -19.8408331 -2.810385797 2.277259279
LeftLeg 30.67200358 -6.98111524 3.437095918
LeftFoot 2.629781199 17.71080413 -18.9447782
LeftToes 8.82235e-011 9.04645e-011 1.87288e-011
638
root 74.17901101 39.2265 -48.10251913 4.421492502 -59.34099294 -7.522759733
RightUpLeg 8.190039546 0.6802429508 21.81649496
RightLeg -3.756911303 0 0
RightFoot -15.12180065 65.82113854 -28.47982676
RightToes 2.32829e-010 -1.59028e-015 9.93923e-017
Spine -7.51407 3.94656 12.4929
Spine1 13.8214 4.73415 -4.4139
HEad -8.20261 -4.98025 1.35199
LeftShoulder1 9.93923e-017 0 1.22299e-017
LeftArm 7.05531 54.8469 -68.866
LeftForeArm -15.3483 -12.2028 -3.69852
LeftHand 0.989239 6.97426 -6.78467
RightShoulder 1.98785e-016 -4.96962e-017 1.55301e-017
RightArm 20.9799 -24.6445 83.1853
RightForeArm -44.7933 28.7058 -25.8324
RightHand 1.16563 -10.225 -6.54391
LeftUpLeg -22.05720461 -1.400264387 2.775306596
LeftLeg 22.1888807 -7.167045804 2.171780234
LeftFoot 4.756115013 13.29391768 -15.09104321
LeftToes 8.82235e-011 9.04645e-011 1.87288e-011
639
root 73.22732916 39.1368 -47.36346142 5.947966396 -63.57860083 -8.952889297
RightUpLeg 10.79186697 -0.2984255684 20.99674709
RightLeg -3.756911303 0 0
RightFoot -25.24545957 69.53002655 -37.56851979
RightToes 2.32829e-010 -1.59028e-015 9.93923e-017
Spine -8.09685 4.28993 13.4388
Spine1 14.4793 5.16981 -5.55563
HEad -8.53831 -5.02505 1.2513
LeftShoulder1 9.93923e-017 0 1.22299e-017
LeftArm 3.03309 55.6042 -66.8765
LeftForeArm -11.7008 -10.2295 -4.35487
LeftHand 0.964956 6.70599 -5.97777
RightShoulder 1.98785e-016 -4.96962e-017 1.55301e-017
RightArm 20.1872 -21.9817 82.6238
RightForeArm -44.228 29.6533 -26.5435
RightHand 1.17304 -10.2993 -6.4314
LeftUpLeg -23.05085424 -1.292244199 2.836821435
LeftLeg 11.89776245 -6.868027305 1.341631899
LeftFoot 6.755064649 9.517008862 -11.3959466
LeftToes 8.82235e-011 9.04645e-011 1.87288e-011
640
root 72.2608195 39.0155 -46.64031401 9.027170776 -68.05257048 -11.25285711
RightUpLeg 12.66126901 -0.8420655804 19.95822349
RightLeg -3.756911303 0 0
RightFoot -39.2140842 72.58252274 -50.57068049
RightToes 2.32829e-010 -1.59028e-015 9.93923e-017
Spine -9.55206 4.83757 14.5931
Spine1 15.3412 5.80493 -6.97747
HEad -8.71883 -5.13068 1.30073
LeftShoulder1 9.93923e-017 0 1.22299e-017
LeftArm -0.365423 55.8509 -65.2931
LeftForeArm -9.19698 -8.25998 -4.8776
LeftHand 0.973909 6.82217 -5.55341
RightShoulder 1.98785e-016 -4.96962e-017 1.55301e-017
RightArm 19.5693 -20.2135 82.2798
RightForeArm -44.1874 29.9719 -26.7769
RightHand 1.14635 -10.1704 -6.21836
LeftUpLeg -24.28428312 -0.9692865014 2.378718512
LeftLeg 2.698629821 -6.297174577 0.9739725906
LeftFoot 6.870342103 6.345172488 -9.569283146
LeftToes 8.82235e-011 9.04645e-011 1.87288e-011
